<mxfile host="app.diagrams.net" agent="Mozilla/5.0 (Windows NT 10.0; Win64; x64) AppleWebKit/537.36 (KHTML, like Gecko) Chrome/134.0.0.0 Safari/537.36" version="26.1.3">
  <diagram id="C5RBs43oDa-KdzZeNtuy" name="Page-1">
    <mxGraphModel dx="2181" dy="708" grid="1" gridSize="10" guides="1" tooltips="1" connect="1" arrows="1" fold="1" page="1" pageScale="1" pageWidth="827" pageHeight="1169" math="0" shadow="0">
      <root>
        <mxCell id="WIyWlLk6GJQsqaUBKTNV-0" />
        <mxCell id="WIyWlLk6GJQsqaUBKTNV-1" parent="WIyWlLk6GJQsqaUBKTNV-0" />
        <mxCell id="eBIcBPv8NP_CART0x4wc-14" style="edgeStyle=orthogonalEdgeStyle;rounded=0;orthogonalLoop=1;jettySize=auto;html=1;entryX=0.5;entryY=0;entryDx=0;entryDy=0;" parent="WIyWlLk6GJQsqaUBKTNV-1" source="ztEo2cumSXpi1-GXdzZY-16" target="i-tpJyM6ukeZP-Oysb0k-8" edge="1">
          <mxGeometry relative="1" as="geometry" />
        </mxCell>
        <mxCell id="eBIcBPv8NP_CART0x4wc-15" style="edgeStyle=orthogonalEdgeStyle;rounded=0;orthogonalLoop=1;jettySize=auto;html=1;exitX=0.5;exitY=1;exitDx=0;exitDy=0;entryX=0.5;entryY=0;entryDx=0;entryDy=0;" parent="WIyWlLk6GJQsqaUBKTNV-1" source="ztEo2cumSXpi1-GXdzZY-16" target="i-tpJyM6ukeZP-Oysb0k-9" edge="1">
          <mxGeometry relative="1" as="geometry" />
        </mxCell>
        <mxCell id="eBIcBPv8NP_CART0x4wc-16" style="edgeStyle=orthogonalEdgeStyle;rounded=0;orthogonalLoop=1;jettySize=auto;html=1;entryX=0.5;entryY=0;entryDx=0;entryDy=0;" parent="WIyWlLk6GJQsqaUBKTNV-1" source="ztEo2cumSXpi1-GXdzZY-16" target="i-tpJyM6ukeZP-Oysb0k-10" edge="1">
          <mxGeometry relative="1" as="geometry" />
        </mxCell>
        <mxCell id="eBIcBPv8NP_CART0x4wc-17" style="edgeStyle=orthogonalEdgeStyle;rounded=0;orthogonalLoop=1;jettySize=auto;html=1;entryX=0.5;entryY=0;entryDx=0;entryDy=0;" parent="WIyWlLk6GJQsqaUBKTNV-1" source="ztEo2cumSXpi1-GXdzZY-16" target="i-tpJyM6ukeZP-Oysb0k-11" edge="1">
          <mxGeometry relative="1" as="geometry" />
        </mxCell>
        <mxCell id="eBIcBPv8NP_CART0x4wc-45" style="edgeStyle=orthogonalEdgeStyle;rounded=0;orthogonalLoop=1;jettySize=auto;html=1;exitX=0.5;exitY=1;exitDx=0;exitDy=0;" parent="WIyWlLk6GJQsqaUBKTNV-1" source="ztEo2cumSXpi1-GXdzZY-16" target="eBIcBPv8NP_CART0x4wc-39" edge="1">
          <mxGeometry relative="1" as="geometry">
            <Array as="points">
              <mxPoint x="-10" y="700" />
              <mxPoint x="-110" y="700" />
              <mxPoint x="-110" y="1120" />
            </Array>
          </mxGeometry>
        </mxCell>
        <mxCell id="ztEo2cumSXpi1-GXdzZY-16" value="" style="shape=parallelogram;perimeter=parallelogramPerimeter;whiteSpace=wrap;html=1;fixedSize=1;" parent="WIyWlLk6GJQsqaUBKTNV-1" vertex="1">
          <mxGeometry x="-70" y="410" width="120" height="60" as="geometry" />
        </mxCell>
        <mxCell id="V2sNwjoRmcDI1SuRTpoJ-5" style="edgeStyle=orthogonalEdgeStyle;rounded=0;orthogonalLoop=1;jettySize=auto;html=1;exitX=0;exitY=0.5;exitDx=0;exitDy=0;entryX=0;entryY=0.75;entryDx=0;entryDy=0;" edge="1" parent="WIyWlLk6GJQsqaUBKTNV-1" source="ztEo2cumSXpi1-GXdzZY-8" target="ztEo2cumSXpi1-GXdzZY-16">
          <mxGeometry relative="1" as="geometry">
            <Array as="points">
              <mxPoint x="-210" y="970" />
              <mxPoint x="-210" y="454" />
            </Array>
          </mxGeometry>
        </mxCell>
        <mxCell id="ztEo2cumSXpi1-GXdzZY-8" value="" style="shape=parallelogram;perimeter=parallelogramPerimeter;whiteSpace=wrap;html=1;fixedSize=1;" parent="WIyWlLk6GJQsqaUBKTNV-1" vertex="1">
          <mxGeometry x="-100" y="940" width="120" height="60" as="geometry" />
        </mxCell>
        <mxCell id="eBIcBPv8NP_CART0x4wc-36" style="edgeStyle=orthogonalEdgeStyle;rounded=0;orthogonalLoop=1;jettySize=auto;html=1;entryX=0;entryY=0;entryDx=0;entryDy=0;" parent="WIyWlLk6GJQsqaUBKTNV-1" source="ztEo2cumSXpi1-GXdzZY-3" target="ztEo2cumSXpi1-GXdzZY-16" edge="1">
          <mxGeometry relative="1" as="geometry">
            <Array as="points">
              <mxPoint x="-470" y="640" />
              <mxPoint x="-470" y="420" />
              <mxPoint x="-53" y="420" />
            </Array>
          </mxGeometry>
        </mxCell>
        <mxCell id="ztEo2cumSXpi1-GXdzZY-3" value="" style="shape=parallelogram;perimeter=parallelogramPerimeter;whiteSpace=wrap;html=1;fixedSize=1;" parent="WIyWlLk6GJQsqaUBKTNV-1" vertex="1">
          <mxGeometry x="-155" y="610" width="120" height="60" as="geometry" />
        </mxCell>
        <mxCell id="eBIcBPv8NP_CART0x4wc-25" style="edgeStyle=orthogonalEdgeStyle;rounded=0;orthogonalLoop=1;jettySize=auto;html=1;exitX=0.5;exitY=1;exitDx=0;exitDy=0;" parent="WIyWlLk6GJQsqaUBKTNV-1" source="SpqZSfrQ8pptOmgCH4xq-6" target="i-tpJyM6ukeZP-Oysb0k-55" edge="1">
          <mxGeometry relative="1" as="geometry" />
        </mxCell>
        <mxCell id="SpqZSfrQ8pptOmgCH4xq-6" value="" style="shape=parallelogram;perimeter=parallelogramPerimeter;whiteSpace=wrap;html=1;fixedSize=1;" parent="WIyWlLk6GJQsqaUBKTNV-1" vertex="1">
          <mxGeometry x="45" y="610" width="120" height="60" as="geometry" />
        </mxCell>
        <mxCell id="eBIcBPv8NP_CART0x4wc-20" style="edgeStyle=orthogonalEdgeStyle;rounded=0;orthogonalLoop=1;jettySize=auto;html=1;exitX=0.5;exitY=1;exitDx=0;exitDy=0;entryX=0.5;entryY=0;entryDx=0;entryDy=0;" parent="WIyWlLk6GJQsqaUBKTNV-1" source="SpqZSfrQ8pptOmgCH4xq-0" target="i-tpJyM6ukeZP-Oysb0k-44" edge="1">
          <mxGeometry relative="1" as="geometry" />
        </mxCell>
        <mxCell id="SpqZSfrQ8pptOmgCH4xq-0" value="" style="shape=parallelogram;perimeter=parallelogramPerimeter;whiteSpace=wrap;html=1;fixedSize=1;" parent="WIyWlLk6GJQsqaUBKTNV-1" vertex="1">
          <mxGeometry x="245.5" y="610" width="127" height="60" as="geometry" />
        </mxCell>
        <mxCell id="eBIcBPv8NP_CART0x4wc-8" style="edgeStyle=orthogonalEdgeStyle;rounded=0;orthogonalLoop=1;jettySize=auto;html=1;exitX=0.5;exitY=1;exitDx=0;exitDy=0;entryX=0.5;entryY=0;entryDx=0;entryDy=0;" parent="WIyWlLk6GJQsqaUBKTNV-1" source="i-tpJyM6ukeZP-Oysb0k-0" target="eBIcBPv8NP_CART0x4wc-1" edge="1">
          <mxGeometry relative="1" as="geometry" />
        </mxCell>
        <mxCell id="i-tpJyM6ukeZP-Oysb0k-0" value="" style="ellipse;whiteSpace=wrap;html=1;" parent="WIyWlLk6GJQsqaUBKTNV-1" vertex="1">
          <mxGeometry x="-70" y="100" width="120" height="80" as="geometry" />
        </mxCell>
        <mxCell id="i-tpJyM6ukeZP-Oysb0k-1" value="START" style="text;html=1;align=center;verticalAlign=middle;whiteSpace=wrap;rounded=0;" parent="WIyWlLk6GJQsqaUBKTNV-1" vertex="1">
          <mxGeometry x="-40" y="125" width="60" height="30" as="geometry" />
        </mxCell>
        <mxCell id="i-tpJyM6ukeZP-Oysb0k-4" value="Display Menu" style="text;html=1;align=center;verticalAlign=middle;whiteSpace=wrap;rounded=0;" parent="WIyWlLk6GJQsqaUBKTNV-1" vertex="1">
          <mxGeometry x="-40" y="425" width="60" height="30" as="geometry" />
        </mxCell>
        <mxCell id="i-tpJyM6ukeZP-Oysb0k-8" value="" style="rounded=0;whiteSpace=wrap;html=1;" parent="WIyWlLk6GJQsqaUBKTNV-1" vertex="1">
          <mxGeometry x="220" y="510" width="170" height="60" as="geometry" />
        </mxCell>
        <mxCell id="eBIcBPv8NP_CART0x4wc-24" style="edgeStyle=orthogonalEdgeStyle;rounded=0;orthogonalLoop=1;jettySize=auto;html=1;exitX=0.5;exitY=1;exitDx=0;exitDy=0;entryX=0.5;entryY=0;entryDx=0;entryDy=0;" parent="WIyWlLk6GJQsqaUBKTNV-1" source="i-tpJyM6ukeZP-Oysb0k-9" target="SpqZSfrQ8pptOmgCH4xq-6" edge="1">
          <mxGeometry relative="1" as="geometry" />
        </mxCell>
        <mxCell id="i-tpJyM6ukeZP-Oysb0k-9" value="" style="rounded=0;whiteSpace=wrap;html=1;" parent="WIyWlLk6GJQsqaUBKTNV-1" vertex="1">
          <mxGeometry x="20" y="510" width="170" height="60" as="geometry" />
        </mxCell>
        <mxCell id="eBIcBPv8NP_CART0x4wc-30" style="edgeStyle=orthogonalEdgeStyle;rounded=0;orthogonalLoop=1;jettySize=auto;html=1;entryX=0.5;entryY=0;entryDx=0;entryDy=0;" parent="WIyWlLk6GJQsqaUBKTNV-1" source="i-tpJyM6ukeZP-Oysb0k-10" target="ztEo2cumSXpi1-GXdzZY-3" edge="1">
          <mxGeometry relative="1" as="geometry" />
        </mxCell>
        <mxCell id="i-tpJyM6ukeZP-Oysb0k-10" value="" style="rounded=0;whiteSpace=wrap;html=1;" parent="WIyWlLk6GJQsqaUBKTNV-1" vertex="1">
          <mxGeometry x="-180" y="510" width="170" height="60" as="geometry" />
        </mxCell>
        <mxCell id="i-tpJyM6ukeZP-Oysb0k-11" value="" style="rounded=0;whiteSpace=wrap;html=1;" parent="WIyWlLk6GJQsqaUBKTNV-1" vertex="1">
          <mxGeometry x="-400" y="510" width="170" height="60" as="geometry" />
        </mxCell>
        <mxCell id="i-tpJyM6ukeZP-Oysb0k-18" value="&lt;span id=&quot;docs-internal-guid-00625801-7fff-4c3f-9edf-3f68d74e59f8&quot;&gt;&lt;span style=&quot;font-size: 11pt; font-family: Arial, sans-serif; background-color: transparent; font-variant-numeric: normal; font-variant-east-asian: normal; font-variant-alternates: normal; font-variant-position: normal; font-variant-emoji: normal; vertical-align: baseline; white-space-collapse: preserve;&quot;&gt;Option 1 (Deposit Funds)&lt;/span&gt;&lt;/span&gt;" style="text;html=1;align=center;verticalAlign=middle;whiteSpace=wrap;rounded=0;" parent="WIyWlLk6GJQsqaUBKTNV-1" vertex="1">
          <mxGeometry x="220" y="525" width="170" height="30" as="geometry" />
        </mxCell>
        <mxCell id="i-tpJyM6ukeZP-Oysb0k-22" value="&lt;span id=&quot;docs-internal-guid-7ac1e8b4-7fff-78de-8316-1a2022dee9b7&quot;&gt;&lt;span style=&quot;font-size: 11pt; font-family: Arial, sans-serif; background-color: transparent; font-variant-numeric: normal; font-variant-east-asian: normal; font-variant-alternates: normal; font-variant-position: normal; font-variant-emoji: normal; vertical-align: baseline; white-space-collapse: preserve;&quot;&gt;Option 2 (Withdraw Funds)&lt;/span&gt;&lt;/span&gt;" style="text;html=1;align=center;verticalAlign=middle;whiteSpace=wrap;rounded=0;" parent="WIyWlLk6GJQsqaUBKTNV-1" vertex="1">
          <mxGeometry x="20" y="525" width="170" height="30" as="geometry" />
        </mxCell>
        <mxCell id="i-tpJyM6ukeZP-Oysb0k-23" value="&lt;span id=&quot;docs-internal-guid-9cc6e6c8-7fff-c1d0-639c-792e6129c6ae&quot;&gt;&lt;span style=&quot;font-size: 11pt; font-family: Arial, sans-serif; background-color: transparent; font-variant-numeric: normal; font-variant-east-asian: normal; font-variant-alternates: normal; font-variant-position: normal; font-variant-emoji: normal; vertical-align: baseline; white-space-collapse: preserve;&quot;&gt;Option 3 (Check Transactions)&lt;/span&gt;&lt;/span&gt;" style="text;html=1;align=center;verticalAlign=middle;whiteSpace=wrap;rounded=0;" parent="WIyWlLk6GJQsqaUBKTNV-1" vertex="1">
          <mxGeometry x="-180" y="525" width="170" height="30" as="geometry" />
        </mxCell>
        <mxCell id="eBIcBPv8NP_CART0x4wc-31" style="edgeStyle=orthogonalEdgeStyle;rounded=0;orthogonalLoop=1;jettySize=auto;html=1;exitX=0;exitY=0.5;exitDx=0;exitDy=0;entryX=0;entryY=0.5;entryDx=0;entryDy=0;" parent="WIyWlLk6GJQsqaUBKTNV-1" source="i-tpJyM6ukeZP-Oysb0k-24" target="eBIcBPv8NP_CART0x4wc-6" edge="1">
          <mxGeometry relative="1" as="geometry">
            <Array as="points">
              <mxPoint x="-420" y="540" />
              <mxPoint x="-420" y="335" />
            </Array>
          </mxGeometry>
        </mxCell>
        <mxCell id="i-tpJyM6ukeZP-Oysb0k-24" value="&lt;span id=&quot;docs-internal-guid-9f69dfaf-7fff-ff9e-e1e5-36461fa2ef0d&quot;&gt;&lt;span style=&quot;font-size: 11pt; font-family: Arial, sans-serif; background-color: transparent; font-variant-numeric: normal; font-variant-east-asian: normal; font-variant-alternates: normal; font-variant-position: normal; font-variant-emoji: normal; vertical-align: baseline; white-space-collapse: preserve;&quot;&gt;Create new account&lt;/span&gt;&lt;/span&gt;" style="text;html=1;align=center;verticalAlign=middle;whiteSpace=wrap;rounded=0;" parent="WIyWlLk6GJQsqaUBKTNV-1" vertex="1">
          <mxGeometry x="-400" y="525" width="170" height="30" as="geometry" />
        </mxCell>
        <mxCell id="i-tpJyM6ukeZP-Oysb0k-38" value="&lt;span id=&quot;docs-internal-guid-00625801-7fff-4c3f-9edf-3f68d74e59f8&quot;&gt;&lt;span style=&quot;font-size: 11pt; font-family: Arial, sans-serif; background-color: transparent; font-variant-numeric: normal; font-variant-east-asian: normal; font-variant-alternates: normal; font-variant-position: normal; font-variant-emoji: normal; vertical-align: baseline; white-space-collapse: preserve;&quot;&gt;Ask for deposit amount&lt;/span&gt;&lt;/span&gt;" style="text;html=1;align=center;verticalAlign=middle;whiteSpace=wrap;rounded=0;" parent="WIyWlLk6GJQsqaUBKTNV-1" vertex="1">
          <mxGeometry x="259" y="625" width="100" height="30" as="geometry" />
        </mxCell>
        <mxCell id="i-tpJyM6ukeZP-Oysb0k-44" value="" style="rounded=0;whiteSpace=wrap;html=1;" parent="WIyWlLk6GJQsqaUBKTNV-1" vertex="1">
          <mxGeometry x="240" y="700" width="130" height="60" as="geometry" />
        </mxCell>
        <mxCell id="i-tpJyM6ukeZP-Oysb0k-45" value="&lt;span id=&quot;docs-internal-guid-00625801-7fff-4c3f-9edf-3f68d74e59f8&quot;&gt;&lt;span style=&quot;font-size: 11pt; font-family: Arial, sans-serif; background-color: transparent; font-variant-numeric: normal; font-variant-east-asian: normal; font-variant-alternates: normal; font-variant-position: normal; font-variant-emoji: normal; vertical-align: baseline; white-space-collapse: preserve;&quot;&gt;Update balance&lt;/span&gt;&lt;/span&gt;" style="text;html=1;align=center;verticalAlign=middle;whiteSpace=wrap;rounded=0;" parent="WIyWlLk6GJQsqaUBKTNV-1" vertex="1">
          <mxGeometry x="240" y="715" width="130" height="30" as="geometry" />
        </mxCell>
        <mxCell id="eBIcBPv8NP_CART0x4wc-32" style="edgeStyle=orthogonalEdgeStyle;rounded=0;orthogonalLoop=1;jettySize=auto;html=1;exitX=0.5;exitY=1;exitDx=0;exitDy=0;entryX=1;entryY=0;entryDx=0;entryDy=0;" parent="WIyWlLk6GJQsqaUBKTNV-1" source="i-tpJyM6ukeZP-Oysb0k-46" target="ztEo2cumSXpi1-GXdzZY-16" edge="1">
          <mxGeometry relative="1" as="geometry">
            <Array as="points">
              <mxPoint x="309" y="890" />
              <mxPoint x="530" y="890" />
              <mxPoint x="530" y="390" />
              <mxPoint x="100" y="390" />
              <mxPoint x="100" y="410" />
            </Array>
          </mxGeometry>
        </mxCell>
        <mxCell id="i-tpJyM6ukeZP-Oysb0k-46" value="" style="whiteSpace=wrap;html=1;" parent="WIyWlLk6GJQsqaUBKTNV-1" vertex="1">
          <mxGeometry x="241.5" y="810" width="135" height="60" as="geometry" />
        </mxCell>
        <mxCell id="i-tpJyM6ukeZP-Oysb0k-48" value="&lt;span id=&quot;docs-internal-guid-00625801-7fff-4c3f-9edf-3f68d74e59f8&quot;&gt;&lt;span style=&quot;font-size: 11pt; font-family: Arial, sans-serif; background-color: transparent; font-variant-numeric: normal; font-variant-east-asian: normal; font-variant-alternates: normal; font-variant-position: normal; font-variant-emoji: normal; vertical-align: baseline; white-space-collapse: preserve;&quot;&gt;Record transaction&lt;/span&gt;&lt;/span&gt;" style="text;html=1;align=center;verticalAlign=middle;whiteSpace=wrap;rounded=0;" parent="WIyWlLk6GJQsqaUBKTNV-1" vertex="1">
          <mxGeometry x="246.5" y="825" width="130" height="30" as="geometry" />
        </mxCell>
        <mxCell id="i-tpJyM6ukeZP-Oysb0k-54" value="Ask for withdrawal amount" style="text;html=1;align=center;verticalAlign=middle;whiteSpace=wrap;rounded=0;" parent="WIyWlLk6GJQsqaUBKTNV-1" vertex="1">
          <mxGeometry x="75" y="625" width="60" height="30" as="geometry" />
        </mxCell>
        <mxCell id="eBIcBPv8NP_CART0x4wc-26" style="edgeStyle=orthogonalEdgeStyle;rounded=0;orthogonalLoop=1;jettySize=auto;html=1;exitX=0.5;exitY=1;exitDx=0;exitDy=0;" parent="WIyWlLk6GJQsqaUBKTNV-1" source="i-tpJyM6ukeZP-Oysb0k-55" edge="1">
          <mxGeometry relative="1" as="geometry">
            <mxPoint x="105" y="820" as="targetPoint" />
          </mxGeometry>
        </mxCell>
        <mxCell id="i-tpJyM6ukeZP-Oysb0k-55" value="" style="rhombus;whiteSpace=wrap;html=1;" parent="WIyWlLk6GJQsqaUBKTNV-1" vertex="1">
          <mxGeometry x="65" y="700" width="80" height="80" as="geometry" />
        </mxCell>
        <mxCell id="i-tpJyM6ukeZP-Oysb0k-56" value="Sufficient Funds?" style="text;html=1;align=center;verticalAlign=middle;whiteSpace=wrap;rounded=0;" parent="WIyWlLk6GJQsqaUBKTNV-1" vertex="1">
          <mxGeometry x="75" y="725" width="60" height="30" as="geometry" />
        </mxCell>
        <mxCell id="i-tpJyM6ukeZP-Oysb0k-57" value="" style="rounded=0;whiteSpace=wrap;html=1;" parent="WIyWlLk6GJQsqaUBKTNV-1" vertex="1">
          <mxGeometry x="45" y="825" width="120" height="60" as="geometry" />
        </mxCell>
        <mxCell id="i-tpJyM6ukeZP-Oysb0k-58" value="proceed to subtract from balance&amp;nbsp;" style="text;html=1;align=center;verticalAlign=middle;whiteSpace=wrap;rounded=0;" parent="WIyWlLk6GJQsqaUBKTNV-1" vertex="1">
          <mxGeometry x="40" y="840" width="130" height="30" as="geometry" />
        </mxCell>
        <mxCell id="i-tpJyM6ukeZP-Oysb0k-60" value="show &lt;strong data-end=&quot;916&quot; data-start=&quot;899&quot;&gt;Error Message&lt;/strong&gt;" style="text;html=1;align=center;verticalAlign=middle;whiteSpace=wrap;rounded=0;" parent="WIyWlLk6GJQsqaUBKTNV-1" vertex="1">
          <mxGeometry x="-70" y="955" width="60" height="30" as="geometry" />
        </mxCell>
        <mxCell id="i-tpJyM6ukeZP-Oysb0k-68" value="yes" style="text;html=1;align=center;verticalAlign=middle;whiteSpace=wrap;rounded=0;" parent="WIyWlLk6GJQsqaUBKTNV-1" vertex="1">
          <mxGeometry x="60" y="780" width="60" height="30" as="geometry" />
        </mxCell>
        <mxCell id="i-tpJyM6ukeZP-Oysb0k-69" value="No" style="text;html=1;align=center;verticalAlign=middle;whiteSpace=wrap;rounded=0;" parent="WIyWlLk6GJQsqaUBKTNV-1" vertex="1">
          <mxGeometry y="710" width="60" height="30" as="geometry" />
        </mxCell>
        <mxCell id="i-tpJyM6ukeZP-Oysb0k-78" value="Show the transaction history" style="text;html=1;align=center;verticalAlign=middle;whiteSpace=wrap;rounded=0;" parent="WIyWlLk6GJQsqaUBKTNV-1" vertex="1">
          <mxGeometry x="-125" y="625" width="60" height="30" as="geometry" />
        </mxCell>
        <mxCell id="eBIcBPv8NP_CART0x4wc-33" style="edgeStyle=orthogonalEdgeStyle;rounded=0;orthogonalLoop=1;jettySize=auto;html=1;entryX=1;entryY=0.25;entryDx=0;entryDy=0;" parent="WIyWlLk6GJQsqaUBKTNV-1" source="SpqZSfrQ8pptOmgCH4xq-7" target="ztEo2cumSXpi1-GXdzZY-16" edge="1">
          <mxGeometry relative="1" as="geometry">
            <Array as="points">
              <mxPoint x="110" y="1040" />
              <mxPoint x="530" y="1040" />
              <mxPoint x="530" y="426" />
            </Array>
          </mxGeometry>
        </mxCell>
        <mxCell id="V2sNwjoRmcDI1SuRTpoJ-4" style="edgeStyle=orthogonalEdgeStyle;rounded=0;orthogonalLoop=1;jettySize=auto;html=1;exitX=1;exitY=0.5;exitDx=0;exitDy=0;entryX=1;entryY=0.75;entryDx=0;entryDy=0;" edge="1" parent="WIyWlLk6GJQsqaUBKTNV-1" source="SpqZSfrQ8pptOmgCH4xq-7" target="ztEo2cumSXpi1-GXdzZY-16">
          <mxGeometry relative="1" as="geometry">
            <Array as="points">
              <mxPoint x="470" y="970" />
              <mxPoint x="470" y="452" />
            </Array>
          </mxGeometry>
        </mxCell>
        <mxCell id="SpqZSfrQ8pptOmgCH4xq-7" value="&lt;div&gt;&lt;span style=&quot;color: rgb(0, 0, 0); font-family: Helvetica; font-size: 12px; font-style: normal; font-variant-ligatures: normal; font-variant-caps: normal; font-weight: 400; letter-spacing: normal; orphans: 2; text-align: center; text-indent: 0px; text-transform: none; widows: 2; word-spacing: 0px; -webkit-text-stroke-width: 0px; white-space: normal; background-color: rgb(251, 251, 251); text-decoration-thickness: initial; text-decoration-style: initial; text-decoration-color: initial; float: none; display: inline !important;&quot;&gt;&lt;br&gt;&lt;/span&gt;&lt;/div&gt;&lt;span style=&quot;color: rgb(0, 0, 0); font-family: Helvetica; font-size: 12px; font-style: normal; font-variant-ligatures: normal; font-variant-caps: normal; font-weight: 400; letter-spacing: normal; orphans: 2; text-align: center; text-indent: 0px; text-transform: none; widows: 2; word-spacing: 0px; -webkit-text-stroke-width: 0px; white-space: normal; background-color: rgb(251, 251, 251); text-decoration-thickness: initial; text-decoration-style: initial; text-decoration-color: initial; float: none; display: inline !important;&quot;&gt;&amp;nbsp;record the transaction&lt;/span&gt;&lt;div&gt;&lt;br/&gt;&lt;/div&gt;" style="rounded=0;whiteSpace=wrap;html=1;" parent="WIyWlLk6GJQsqaUBKTNV-1" vertex="1">
          <mxGeometry x="50" y="940" width="120" height="60" as="geometry" />
        </mxCell>
        <mxCell id="eBIcBPv8NP_CART0x4wc-9" value="" style="edgeStyle=orthogonalEdgeStyle;rounded=0;orthogonalLoop=1;jettySize=auto;html=1;" parent="WIyWlLk6GJQsqaUBKTNV-1" source="eBIcBPv8NP_CART0x4wc-1" target="eBIcBPv8NP_CART0x4wc-5" edge="1">
          <mxGeometry relative="1" as="geometry" />
        </mxCell>
        <mxCell id="eBIcBPv8NP_CART0x4wc-1" value="" style="shape=parallelogram;perimeter=parallelogramPerimeter;whiteSpace=wrap;html=1;fixedSize=1;" parent="WIyWlLk6GJQsqaUBKTNV-1" vertex="1">
          <mxGeometry x="-70" y="215" width="120" height="60" as="geometry" />
        </mxCell>
        <mxCell id="eBIcBPv8NP_CART0x4wc-3" value="Welcome&lt;div&gt;to safehaven banking&lt;/div&gt;" style="text;html=1;align=center;verticalAlign=middle;whiteSpace=wrap;rounded=0;" parent="WIyWlLk6GJQsqaUBKTNV-1" vertex="1">
          <mxGeometry x="-50" y="230" width="80" height="30" as="geometry" />
        </mxCell>
        <mxCell id="eBIcBPv8NP_CART0x4wc-12" style="edgeStyle=orthogonalEdgeStyle;rounded=0;orthogonalLoop=1;jettySize=auto;html=1;exitX=0.5;exitY=1;exitDx=0;exitDy=0;entryX=0.5;entryY=0;entryDx=0;entryDy=0;" parent="WIyWlLk6GJQsqaUBKTNV-1" source="eBIcBPv8NP_CART0x4wc-6" target="ztEo2cumSXpi1-GXdzZY-16" edge="1">
          <mxGeometry relative="1" as="geometry" />
        </mxCell>
        <mxCell id="eBIcBPv8NP_CART0x4wc-6" value="" style="shape=parallelogram;perimeter=parallelogramPerimeter;whiteSpace=wrap;html=1;fixedSize=1;" parent="WIyWlLk6GJQsqaUBKTNV-1" vertex="1">
          <mxGeometry x="-70" y="305" width="120" height="60" as="geometry" />
        </mxCell>
        <mxCell id="eBIcBPv8NP_CART0x4wc-5" value="Ask for user name" style="text;html=1;align=center;verticalAlign=middle;whiteSpace=wrap;rounded=0;" parent="WIyWlLk6GJQsqaUBKTNV-1" vertex="1">
          <mxGeometry x="-40" y="320" width="60" height="30" as="geometry" />
        </mxCell>
        <mxCell id="eBIcBPv8NP_CART0x4wc-19" style="edgeStyle=orthogonalEdgeStyle;rounded=0;orthogonalLoop=1;jettySize=auto;html=1;exitX=0.5;exitY=1;exitDx=0;exitDy=0;entryX=0.462;entryY=0.047;entryDx=0;entryDy=0;entryPerimeter=0;" parent="WIyWlLk6GJQsqaUBKTNV-1" source="i-tpJyM6ukeZP-Oysb0k-8" target="SpqZSfrQ8pptOmgCH4xq-0" edge="1">
          <mxGeometry relative="1" as="geometry" />
        </mxCell>
        <mxCell id="eBIcBPv8NP_CART0x4wc-22" style="edgeStyle=orthogonalEdgeStyle;rounded=0;orthogonalLoop=1;jettySize=auto;html=1;exitX=0.5;exitY=1;exitDx=0;exitDy=0;entryX=0.464;entryY=-0.008;entryDx=0;entryDy=0;entryPerimeter=0;" parent="WIyWlLk6GJQsqaUBKTNV-1" source="i-tpJyM6ukeZP-Oysb0k-44" target="i-tpJyM6ukeZP-Oysb0k-46" edge="1">
          <mxGeometry relative="1" as="geometry" />
        </mxCell>
        <mxCell id="eBIcBPv8NP_CART0x4wc-28" style="edgeStyle=orthogonalEdgeStyle;rounded=0;orthogonalLoop=1;jettySize=auto;html=1;entryX=0.458;entryY=0.047;entryDx=0;entryDy=0;entryPerimeter=0;" parent="WIyWlLk6GJQsqaUBKTNV-1" source="i-tpJyM6ukeZP-Oysb0k-57" target="SpqZSfrQ8pptOmgCH4xq-7" edge="1">
          <mxGeometry relative="1" as="geometry" />
        </mxCell>
        <mxCell id="eBIcBPv8NP_CART0x4wc-29" style="edgeStyle=orthogonalEdgeStyle;rounded=0;orthogonalLoop=1;jettySize=auto;html=1;exitX=0;exitY=0.5;exitDx=0;exitDy=0;entryX=0.556;entryY=-0.05;entryDx=0;entryDy=0;entryPerimeter=0;" parent="WIyWlLk6GJQsqaUBKTNV-1" source="i-tpJyM6ukeZP-Oysb0k-55" target="ztEo2cumSXpi1-GXdzZY-8" edge="1">
          <mxGeometry relative="1" as="geometry" />
        </mxCell>
        <mxCell id="eBIcBPv8NP_CART0x4wc-48" style="edgeStyle=orthogonalEdgeStyle;rounded=0;orthogonalLoop=1;jettySize=auto;html=1;exitX=0.5;exitY=1;exitDx=0;exitDy=0;entryX=0.5;entryY=0;entryDx=0;entryDy=0;" parent="WIyWlLk6GJQsqaUBKTNV-1" source="V2sNwjoRmcDI1SuRTpoJ-1" target="eBIcBPv8NP_CART0x4wc-46" edge="1">
          <mxGeometry relative="1" as="geometry" />
        </mxCell>
        <mxCell id="V2sNwjoRmcDI1SuRTpoJ-3" style="edgeStyle=orthogonalEdgeStyle;rounded=0;orthogonalLoop=1;jettySize=auto;html=1;exitX=0.5;exitY=1;exitDx=0;exitDy=0;entryX=0.5;entryY=0;entryDx=0;entryDy=0;" edge="1" parent="WIyWlLk6GJQsqaUBKTNV-1" source="eBIcBPv8NP_CART0x4wc-39" target="V2sNwjoRmcDI1SuRTpoJ-0">
          <mxGeometry relative="1" as="geometry" />
        </mxCell>
        <mxCell id="eBIcBPv8NP_CART0x4wc-39" value="" style="rounded=0;whiteSpace=wrap;html=1;" parent="WIyWlLk6GJQsqaUBKTNV-1" vertex="1">
          <mxGeometry x="-35" y="1090" width="120" height="60" as="geometry" />
        </mxCell>
        <mxCell id="eBIcBPv8NP_CART0x4wc-40" value="Close Program" style="text;html=1;align=center;verticalAlign=middle;whiteSpace=wrap;rounded=0;" parent="WIyWlLk6GJQsqaUBKTNV-1" vertex="1">
          <mxGeometry x="-5" y="1105" width="60" height="30" as="geometry" />
        </mxCell>
        <mxCell id="eBIcBPv8NP_CART0x4wc-46" value="" style="ellipse;whiteSpace=wrap;html=1;" parent="WIyWlLk6GJQsqaUBKTNV-1" vertex="1">
          <mxGeometry x="-35" y="1295" width="120" height="80" as="geometry" />
        </mxCell>
        <mxCell id="eBIcBPv8NP_CART0x4wc-47" value="End" style="text;html=1;align=center;verticalAlign=middle;whiteSpace=wrap;rounded=0;" parent="WIyWlLk6GJQsqaUBKTNV-1" vertex="1">
          <mxGeometry x="-5" y="1320" width="60" height="30" as="geometry" />
        </mxCell>
        <mxCell id="V2sNwjoRmcDI1SuRTpoJ-0" value="" style="rounded=0;whiteSpace=wrap;html=1;" vertex="1" parent="WIyWlLk6GJQsqaUBKTNV-1">
          <mxGeometry x="-35" y="1200" width="120" height="60" as="geometry" />
        </mxCell>
        <mxCell id="V2sNwjoRmcDI1SuRTpoJ-1" value="Auto Print Receipt" style="text;html=1;align=center;verticalAlign=middle;whiteSpace=wrap;rounded=0;" vertex="1" parent="WIyWlLk6GJQsqaUBKTNV-1">
          <mxGeometry x="-5" y="1215" width="60" height="30" as="geometry" />
        </mxCell>
      </root>
    </mxGraphModel>
  </diagram>
</mxfile>
